HIERARCHY
ROOT Hips
{
	OFFSET 0.00000 0.00000 0.00000
	CHANNELS 6 Xposition Yposition Zposition Zrotation Yrotation Xrotation 
	JOINT LHipJoint
	{
		OFFSET 0 0 0
		CHANNELS 3 Zrotation Yrotation Xrotation
		JOINT LeftUpLeg
		{
			OFFSET 1.56857 -1.73443 1.15205
			CHANNELS 3 Zrotation Yrotation Xrotation
			JOINT LeftLeg
			{
				OFFSET 2.39362 -6.57643 0.00000
				CHANNELS 3 Zrotation Yrotation Xrotation
				JOINT LeftFoot
				{
					OFFSET 2.50952 -6.89485 0.00000
					CHANNELS 3 Zrotation Yrotation Xrotation
					JOINT LeftToeBase
					{
						OFFSET 0.17171 -0.47178 1.88682
						CHANNELS 3 Zrotation Yrotation Xrotation
						End Site
						{
							OFFSET 0.00000 -0.00000 0.98146
						}
					}
				}
			}
		}
	}
	JOINT RHipJoint
	{
		OFFSET 0 0 0
		CHANNELS 3 Zrotation Yrotation Xrotation
		JOINT RightUpLeg
		{
			OFFSET -1.28153 -1.73443 1.15205
			CHANNELS 3 Zrotation Yrotation Xrotation
			JOINT RightLeg
			{
				OFFSET -2.26861 -6.23296 0.00000
				CHANNELS 3 Zrotation Yrotation Xrotation
				JOINT RightFoot
				{
					OFFSET -2.54143 -6.98254 0.00000
					CHANNELS 3 Zrotation Yrotation Xrotation
					JOINT RightToeBase
					{
						OFFSET -0.23309 -0.64041 1.93119
						CHANNELS 3 Zrotation Yrotation Xrotation
						End Site
						{
							OFFSET -0.00000 -0.00000 1.02013
						}
					}
				}
			}
		}
	}
	JOINT LowerBack
	{
		OFFSET 0 0 0
		CHANNELS 3 Zrotation Yrotation Xrotation
		JOINT Spine
		{
			OFFSET -0.07096 2.10460 -0.27878
			CHANNELS 3 Zrotation Yrotation Xrotation
			JOINT Spine1
			{
				OFFSET -0.00826 2.13662 -0.08279
				CHANNELS 3 Zrotation Yrotation Xrotation
				JOINT Neck
				{
					OFFSET 0 0 0
					CHANNELS 3 Zrotation Yrotation Xrotation
					JOINT Neck1
					{
						OFFSET 0.03239 1.77799 0.24435
						CHANNELS 3 Zrotation Yrotation Xrotation
						JOINT Head
						{
							OFFSET 0.01026 1.74194 -0.49664
							CHANNELS 3 Zrotation Yrotation Xrotation
							End Site
							{
								OFFSET 0.00170 1.83057 -0.19653
							}
						}
					}
				}
				JOINT LeftShoulder
				{
					OFFSET 0 0 0
					CHANNELS 3 Zrotation Yrotation Xrotation
					JOINT LeftArm
					{
						OFFSET 3.19178 1.35907 -0.31412
						CHANNELS 3 Zrotation Yrotation Xrotation
						JOINT LeftForeArm
						{
							OFFSET 4.85247 -0.00000 -0.00000
							CHANNELS 3 Zrotation Yrotation Xrotation
							JOINT LeftHand
							{
								OFFSET 3.55584 -0.00000 0.00000
								CHANNELS 3 Zrotation Yrotation Xrotation
								JOINT LeftFingerBase
								{
									OFFSET 0 0 0
									CHANNELS 3 Zrotation Yrotation Xrotation
									JOINT LeftHandIndex1
									{
										OFFSET 0.69320 -0.00000 0.00000
										CHANNELS 3 Zrotation Yrotation Xrotation
										End Site
										{
											OFFSET 0.55888 -0.00000 0.00000
										}
									}
								}
								JOINT LThumb
								{
									OFFSET 0 0 0
									CHANNELS 3 Zrotation Yrotation Xrotation
									End Site
									{
										OFFSET 0.56741 -0.00000 0.56741
									}
								}
							}
						}
					}
				}
				JOINT RightShoulder
				{
					OFFSET 0 0 0
					CHANNELS 3 Zrotation Yrotation Xrotation
					JOINT RightArm
					{
						OFFSET -3.28999 1.24191 -0.26899
						CHANNELS 3 Zrotation Yrotation Xrotation
						JOINT RightForeArm
						{
							OFFSET -4.64462 -0.00000 0.00000
							CHANNELS 3 Zrotation Yrotation Xrotation
							JOINT RightHand
							{
								OFFSET -3.40703 -0.00000 0.00000
								CHANNELS 3 Zrotation Yrotation Xrotation
								JOINT RightFingerBase
								{
									OFFSET 0 0 0
									CHANNELS 3 Zrotation Yrotation Xrotation
									JOINT RightHandIndex1
									{
										OFFSET -0.61958 -0.00000 0.00000
										CHANNELS 3 Zrotation Yrotation Xrotation
										End Site
										{
											OFFSET -0.49952 -0.00000 0.00000
										}
									}
								}
								JOINT RThumb
								{
									OFFSET 0 0 0
									CHANNELS 3 Zrotation Yrotation Xrotation
									End Site
									{
										OFFSET -0.50715 -0.00000 0.50715
									}
								}
							}
						}
					}
				}
			}
		}
	}
}
MOTION
Frames: 14
Frame Time: .0083333
-28.9704 17.2122 -0.4356 0 0 0 0 0 0 -21 0 0 0 0 0 0 0 0 0 0 0 0 0 0 21 0 0 0 0 0 0 0 0 0 0 0 0 0 0 0 0 0 0 0 0 0 0 -16 0 0 21 0 0 11 0 0 0 -8 0 0 0 0 0 0 0 0 0 0 0 0 0 0 0 0 0 0 0 0 8 0 0 0 0 0 0 0 0 0 0 0 0 0 0 0 0 0
-28.9704 17.2122 -0.4356 28.1072 85.0681 29.9713 0.0000 0.0000 0.0000 -14.7963 2.0578 11.8920 0.0139 -0.7601 -2.0889 0.0823 13.9295 -20.7043 0.0753 -1.7706 -4.8721 0.0000 0.0000 0.0000 11.6398 -6.9159 7.6669 -0.0072 -0.5477 1.5050 -0.8128 -3.3295 -18.5507 -0.5818 -4.8840 13.5781 -3.8900 2.2448 5.4479 -0.9164 2.7495 0.5303 1.0215 1.4152 -2.6436 2.7882 2.2112 -23.2968 -0.3425 2.4240 25.7796 -0.1594 1.3894 12.4640 -0.0000 0.0000 0.0000 -85.0638 4.8607 37.8143 20.1553 -30.8290 -5.6107 -0.0000 -0.0000 15.7718 17.5213 -21.9307 -6.7248 -7.1250 0.0000 -0.0000 -7.1035 7.2353 6.2013 -0.0000 0.0000 0.0000 86.6245 -5.1547 33.6392 -19.0134 29.4353 -5.0374 0.0000 -0.0000 -0.6451 -12.6862 -30.4139 6.5013 7.1250 -0.0000 -0.0000 21.4257 -59.7169 -7.9178
-28.9702 17.2108 -0.4378 33.9067 85.2553 35.7504 0.0000 0.0000 0.0000 -14.9484 2.3873 11.4662 0.0098 -0.6397 -1.7578 0.1081 13.2867 -20.1319 0.1077 -2.1160 -5.8265 0.0000 0.0000 0.0000 11.1761 -7.3450 7.6861 -0.0060 -0.5022 1.3799 -0.7955 -3.6958 -18.5813 -0.3942 -4.0314 11.1650 -4.2352 2.0963 5.4163 -0.9396 2.5354 0.5839 1.2101 1.3112 -2.5743 2.6690 2.2478 -23.2575 -0.2638 2.4955 25.6889 -0.0983 1.4188 12.4183 -0.0000 0.0000 0.0000 -85.0958 4.8233 37.7439 20.2493 -30.9415 -5.6590 -0.0000 -0.0000 15.6720 5.6717 -22.8069 -2.2046 -7.1250 0.0000 -0.0000 -14.5214 7.6594 12.8884 -0.0000 0.0000 0.0000 86.5321 -5.0001 33.7502 -18.9520 29.3589 -5.0073 0.0000 -0.0000 -0.5182 -12.5501 -30.3472 6.4172 7.1250 -0.0000 -0.0000 21.5158 -59.6240 -7.9049
-28.9622 17.2172 -0.4403 38.3628 85.5898 40.0021 0.0000 0.0000 0.0000 -15.0998 2.0665 11.7418 0.0099 -0.6423 -1.7652 0.1014 13.2805 -20.0499 0.0960 -1.9978 -5.4997 0.0000 0.0000 0.0000 11.0373 -7.6803 8.0907 -0.0041 -0.4115 1.1307 -0.7923 -3.9440 -18.6945 -0.3711 -3.9129 10.8318 -4.2868 1.9392 5.6196 -0.9271 2.3145 0.6211 1.2633 1.2028 -2.6402 2.6311 2.2636 -23.1888 -0.2252 2.5230 25.6581 -0.0734 1.4328 12.3917 0.0000 -0.0000 0.0000 -85.0623 4.8991 37.7417 20.2538 -30.9469 -5.6613 -0.0000 -0.0000 15.5368 5.7384 -23.0219 -2.2505 -7.1250 0.0000 -0.0000 -14.4789 7.4454 12.9107 0.0000 -0.0000 0.0000 86.4889 -5.0565 33.8137 -18.9396 29.3435 -5.0012 0.0000 -0.0000 -0.5054 -12.3325 -30.2979 6.2941 7.1250 -0.0000 -0.0000 21.7045 -59.5287 -7.9284
-28.9672 17.2095 -0.4393 33.7561 85.1705 35.6381 0.0000 0.0000 0.0000 -15.1742 2.0167 11.6996 0.0123 -0.7162 -1.9682 0.0877 13.6991 -20.4548 0.0698 -1.7048 -4.6906 0.0000 0.0000 0.0000 11.1213 -7.3626 7.6101 -0.0063 -0.5134 1.4107 -0.7870 -3.6670 -18.4778 -0.3787 -3.9523 10.9424 -4.3697 2.0962 5.2907 -0.8667 2.5371 0.6264 1.3657 1.3113 -2.4692 2.5950 2.2925 -23.2524 -0.2474 2.5780 25.5980 -0.0663 1.4485 12.3809 0.0000 -0.0000 0.0000 -85.1278 4.8031 37.4869 20.2257 -30.9133 -5.6468 -0.0000 -0.0000 15.6258 7.3524 -22.8392 -2.8672 -7.1250 0.0000 -0.0000 -13.4877 7.4840 11.9610 0.0000 -0.0000 0.0000 86.4122 -4.8907 33.9594 -18.9163 29.3145 -4.9898 0.0000 -0.0000 -0.5236 -12.2764 -30.3389 6.2724 7.1250 -0.0000 -0.0000 21.7947 -59.5534 -7.9763
-28.9635 17.2084 -0.4405 35.0883 85.3869 36.9748 0.0000 0.0000 0.0000 -15.1023 1.9319 11.6296 0.0109 -0.6733 -1.8502 0.1172 13.4437 -20.4375 0.0594 -1.5731 -4.3272 0.0000 0.0000 0.0000 11.2067 -7.3363 7.7923 -0.0049 -0.4537 1.2467 -0.7965 -3.7701 -18.6355 -0.4421 -4.2662 11.8267 -4.3730 2.0081 5.3088 -0.7991 2.4192 0.6167 1.4456 1.2530 -2.4857 2.5821 2.3056 -23.3459 -0.3120 2.6200 25.6837 -0.0797 1.4570 12.4348 0.0000 -0.0000 0.0000 -85.3271 4.8714 36.8229 20.0140 -30.6592 -5.5385 -0.0000 -0.0000 17.1014 8.2280 -23.4783 -3.2971 -7.1250 0.0000 -0.0000 -12.9538 6.7778 11.6436 0.0000 -0.0000 0.0000 86.3077 -4.8952 34.1342 -18.9149 29.3127 -4.9891 0.0000 -0.0000 -0.5379 -12.5373 -29.9967 6.3440 7.1250 -0.0000 -0.0000 21.2601 -59.2971 -7.6380
-28.9618 17.2108 -0.4419 34.7202 85.5197 36.5170 0.0000 0.0000 0.0000 -14.8839 2.1532 11.5486 0.0087 -0.6034 -1.6582 0.1411 13.1264 -20.2853 0.0629 -1.6177 -4.4503 0.0000 0.0000 0.0000 11.3188 -7.4059 7.9349 -0.0046 -0.4378 1.2031 -0.8069 -3.6798 -18.6893 -0.4824 -4.4537 12.3566 -4.2444 1.9784 5.4382 -0.7627 2.3812 0.6280 1.4101 1.2336 -2.5405 2.6185 2.3076 -23.3846 -0.3979 2.6344 25.7092 -0.1154 1.4550 12.4547 -0.0000 0.0000 0.0000 -85.1602 -0.8418 40.1772 13.1158 -21.4567 -2.4955 -0.0000 -0.0000 16.3354 15.6459 -26.7317 -7.1802 -7.1250 0.0000 -0.0000 -8.5955 2.6376 8.2858 -0.0000 0.0000 0.0000 86.3041 -4.8857 34.1150 -18.9066 29.3025 -4.9851 0.0000 -0.0000 -0.4265 -12.8484 -29.4291 6.3943 7.1250 -0.0000 -0.0000 20.5148 -58.8401 -7.1293
-28.9629 17.2085 -0.4416 33.8539 85.4701 35.7250 0.0000 0.0000 0.0000 -14.7532 2.4206 11.3102 0.0075 -0.5575 -1.5319 0.1493 12.9476 -20.1452 0.0717 -1.7274 -4.7530 0.0000 0.0000 0.0000 11.3656 -7.3369 7.8215 -0.0049 -0.4517 1.2411 -0.8104 -3.7186 -18.7471 -0.4467 -4.2882 11.8889 -4.2640 1.9980 5.4131 -0.7290 2.4062 0.5859 1.4536 1.2471 -2.5738 2.6390 2.3158 -23.4002 -0.4482 2.6537 25.7288 -0.1343 1.4586 12.4671 0.0000 -0.0000 0.0000 -85.2515 -1.1197 39.8385 13.2861 -21.7049 -2.5581 -0.0000 -0.0000 14.2882 11.5581 -25.5782 -5.0458 -7.1250 0.0000 -0.0000 -10.9847 4.3461 10.3157 0.0000 -0.0000 0.0000 86.3015 -4.8829 34.1045 -18.9302 29.3319 -4.9966 0.0000 -0.0000 -0.2952 -13.0757 -29.0635 6.4373 7.1250 -0.0000 -0.0000 20.0166 -58.5491 -6.8061
-28.9659 17.2083 -0.4413 31.6639 85.3054 33.5332 0.0000 0.0000 0.0000 -14.7861 2.3063 11.4918 0.0093 -0.6219 -1.7089 0.1348 13.2613 -20.3913 0.0666 -1.6650 -4.5808 0.0000 0.0000 0.0000 11.4217 -7.2567 7.7014 -0.0060 -0.5006 1.3755 -0.8091 -3.6264 -18.6807 -0.4249 -4.1835 11.5935 -4.2735 2.0764 5.4665 -0.6899 2.5071 0.5718 1.4886 1.2985 -2.6262 2.6779 2.3441 -23.4835 -0.4808 2.6906 25.8467 -0.1449 1.4751 12.5325 0.0000 0.0000 0.0000 -85.2952 -1.2225 39.6911 13.3160 -21.7485 -2.5692 -0.0000 -0.0000 13.6066 10.2556 -25.0304 -4.3775 -7.1250 0.0000 -0.0000 -11.7517 5.0407 10.9107 0.0000 0.0000 0.0000 86.2971 -4.8910 34.1409 -18.9256 29.3261 -4.9943 0.0000 -0.0000 -0.2073 -13.0367 -29.2199 6.4488 7.1250 -0.0000 -0.0000 20.1684 -58.6868 -6.9277
-28.9589 17.2068 -0.4426 34.1699 85.5959 35.9988 0.0000 0.0000 0.0000 -14.7162 2.2973 11.4394 0.0083 -0.5874 -1.6141 0.1440 13.0071 -20.1631 0.0769 -1.7884 -4.9213 0.0000 0.0000 0.0000 11.4197 -7.4005 7.9132 -0.0047 -0.4409 1.2115 -0.8112 -3.7389 -18.7675 -0.4612 -4.3565 12.0818 -4.2602 1.9574 5.3853 -0.6690 2.3572 0.6454 1.5195 1.2209 -2.4962 2.7440 2.3748 -23.5453 -0.5792 2.7375 25.8740 -0.1846 1.4882 12.5593 -0.0000 0.0000 0.0000 -85.3113 -1.2977 39.6424 13.2710 -21.6829 -2.5525 -0.0000 -0.0000 13.5802 10.2870 -24.8552 -4.3625 -7.1250 0.0000 -0.0000 -11.7269 5.2098 10.8483 -0.0000 0.0000 0.0000 86.3020 -4.8177 34.0661 -18.8423 29.2223 -4.9536 0.0000 -0.0000 -0.1399 -12.7409 -29.6735 6.3870 7.1250 -0.0000 -0.0000 20.8059 -59.0434 -7.3384
-28.9491 17.2099 -0.4431 38.5630 85.9037 40.2380 0.0000 0.0000 0.0000 -14.6392 2.4907 11.3620 0.0062 -0.5067 -1.3923 0.1647 12.4977 -19.7443 0.0933 -1.9694 -5.4212 0.0000 0.0000 0.0000 11.3442 -7.5558 8.3387 -0.0029 -0.3456 0.9496 -0.8195 -3.9701 -18.9863 -0.4941 -4.5067 12.5069 -4.3286 1.8088 5.4034 -0.6653 2.1591 0.7492 1.5789 1.1203 -2.3900 2.7993 2.3995 -23.5516 -0.6317 2.7647 25.8247 -0.2095 1.4975 12.5432 0.0000 -0.0000 0.0000 -85.3029 -1.3220 39.5652 13.0871 -21.4147 -2.4850 -0.0000 -0.0000 14.3696 11.7333 -25.2702 -5.0668 -7.1250 0.0000 -0.0000 -10.8651 4.6297 10.1404 0.0000 -0.0000 0.0000 86.2987 -4.7736 34.0416 -18.7909 29.1581 -4.9286 0.0000 -0.0000 -0.1811 -12.7180 -29.8750 6.4142 7.1250 -0.0000 -0.0000 20.9801 -59.2253 -7.4955
-28.9526 17.2068 -0.4440 34.6500 85.6327 36.4476 0.0000 0.0000 0.0000 -14.6324 2.5124 11.3437 0.0073 -0.5520 -1.5170 0.1454 12.8047 -19.9194 0.0925 -1.9611 -5.3982 0.0000 0.0000 0.0000 11.4123 -7.3940 7.9782 -0.0047 -0.4448 1.2222 -0.8209 -3.7684 -18.8829 -0.4618 -4.3590 12.0889 -4.3670 1.9105 5.2935 -0.6199 2.2978 0.7321 1.6394 1.1892 -2.3579 2.8849 2.4527 -23.6144 -0.7210 2.8310 25.8152 -0.2457 1.5218 12.5562 0.0000 -0.0000 0.0000 -85.2780 -1.2513 39.5124 12.6547 -20.7792 -2.3294 -0.0000 -0.0000 16.7635 15.9674 -26.4391 -7.2603 -7.1250 0.0000 -0.0000 -8.3799 2.8836 8.0353 0.0000 -0.0000 0.0000 86.2532 -4.7773 34.1496 -18.8029 29.1731 -4.9344 0.0000 -0.0000 -0.2048 -12.9906 -29.6385 6.5084 7.1250 -0.0000 -0.0000 20.5204 -59.0671 -7.2440
-28.9555 17.2085 -0.4485 32.4061 85.4169 34.2307 0.0000 0.0000 0.0000 -14.6016 2.7334 11.2502 0.0070 -0.5393 -1.4818 0.1543 12.8174 -20.0344 0.0860 -1.8912 -5.2051 0.0000 0.0000 0.0000 11.4123 -7.2888 7.7662 -0.0065 -0.5209 1.4314 -0.8188 -3.6156 -18.7736 -0.4389 -4.2513 11.7846 -4.3344 1.9837 5.2867 -0.6158 2.3980 0.7465 1.6181 1.2383 -2.3443 2.9588 2.4829 -23.6440 -0.8263 2.8736 25.7641 -0.2910 1.5320 12.5457 0.0000 -0.0000 0.0000 -85.2477 -1.3051 39.5039 12.6510 -20.7736 -2.3280 -0.0000 -0.0000 16.5508 15.9164 -26.4365 -7.2355 -7.1250 0.0000 -0.0000 -8.4103 2.8939 8.0635 0.0000 -0.0000 0.0000 86.2510 -4.7724 34.1854 -18.8220 29.1969 -4.9437 0.0000 -0.0000 -0.1069 -13.2988 -29.0300 6.5433 7.1250 -0.0000 -0.0000 19.7615 -58.5671 -6.7235
-28.9505 17.2050 -0.4452 33.9520 85.5395 35.8798 0.0000 0.0000 0.0000 -14.4535 3.0636 10.8813 0.0049 -0.4501 -1.2367 0.1895 12.3093 -19.7844 0.0955 -1.9931 -5.4867 0.0000 0.0000 0.0000 11.4823 -7.1127 7.8567 -0.0053 -0.4694 1.2898 -0.8201 -3.9285 -18.9676 -0.4457 -4.2834 11.8754 -4.4528 1.8988 5.1531 -0.5630 2.2854 0.7269 1.7515 1.1825 -2.2897 2.8973 2.4891 -23.6210 -0.8447 2.9123 25.7508 -0.2813 1.5404 12.5358 -0.0000 0.0000 0.0000 -85.2983 -1.2451 39.4313 12.6481 -20.7695 -2.3270 -0.0000 -0.0000 16.5007 15.7532 -26.3361 -7.1332 -7.1250 0.0000 -0.0000 -8.5007 3.0195 8.1324 -0.0000 0.0000 0.0000 86.1675 -4.7897 34.2440 -18.7877 29.1541 -4.9270 0.0000 -0.0000 -0.0588 -13.3528 -28.8618 6.5361 7.1250 -0.0000 -0.0000 19.5878 -58.4211 -6.5921
